<svg xmlns="http://www.w3.org/2000/svg" xmlns:xlink="http://www.w3.org/1999/xlink" version="1.1" width="256" height="256" viewBox="0 0 256 256" xml:space="preserve">
<g style="stroke: none; stroke-width: 0; stroke-dasharray: none; stroke-linecap: butt; stroke-linejoin: miter; stroke-miterlimit: 10; fill: none; fill-rule: nonzero; opacity: 1;" transform="translate(1.4065934065934016 1.4065934065934016) scale(2.81 2.81)">
	<path d="M 77.678 20.214 v 65.703 c 0 1.703 -1.38 3.083 -3.083 3.083 H 15.405 c -1.703 0 -3.083 -1.38 -3.083 -3.083 V 4.083 C 12.322 2.38 13.703 1 15.405 1 h 43.058 c 0.818 0 1.602 0.325 2.18 0.903 l 16.131 16.131 C 77.353 18.612 77.678 19.396 77.678 20.214 z" style="stroke: none; stroke-width: 1; stroke-dasharray: none; stroke-linecap: butt; stroke-linejoin: miter; stroke-miterlimit: 10; fill: rgb(220,223,225); fill-rule: nonzero; opacity: 1;" transform=" matrix(1 0 0 1 0 0) " stroke-linecap="round"/>
	<path d="M 77.678 18.937 H 62.549 c -1.551 0 -2.809 -1.258 -2.809 -2.809 V 1" style="stroke: none; stroke-width: 1; stroke-dasharray: none; stroke-linecap: butt; stroke-linejoin: miter; stroke-miterlimit: 10; fill: rgb(171,178,184); fill-rule: nonzero; opacity: 1;" transform=" matrix(1 0 0 1 0 0) " stroke-linecap="round"/>
	<path d="M 77.678 19.937 H 62.55 c -2.101 0 -3.81 -1.709 -3.81 -3.809 V 1 h 2 v 15.128 c 0 0.998 0.812 1.809 1.81 1.809 h 15.128 V 19.937 z" style="stroke: none; stroke-width: 1; stroke-dasharray: none; stroke-linecap: butt; stroke-linejoin: miter; stroke-miterlimit: 10; fill: rgb(0,0,0); fill-rule: nonzero; opacity: 1;" transform=" matrix(1 0 0 1 0 0) " stroke-linecap="round"/>
	<path d="M 74.595 90 H 15.405 c -2.251 0 -4.083 -1.832 -4.083 -4.083 V 4.083 C 11.322 1.832 13.154 0 15.405 0 h 43.059 c 1.091 0 2.115 0.425 2.887 1.196 l 16.131 16.131 c 0.771 0.771 1.196 1.796 1.196 2.887 v 65.703 C 78.678 88.168 76.846 90 74.595 90 z M 15.405 2 c -1.148 0 -2.083 0.935 -2.083 2.083 v 81.834 c 0 1.148 0.935 2.083 2.083 2.083 h 59.189 c 1.148 0 2.083 -0.935 2.083 -2.083 V 20.214 c 0 -0.548 -0.223 -1.084 -0.61 -1.473 L 59.937 2.61 C 59.543 2.217 59.021 2 58.464 2 H 15.405 z" style="stroke: none; stroke-width: 1; stroke-dasharray: none; stroke-linecap: butt; stroke-linejoin: miter; stroke-miterlimit: 10; fill: rgb(0,0,0); fill-rule: nonzero; opacity: 1;" transform=" matrix(1 0 0 1 0 0) " stroke-linecap="round"/>
	<circle cx="32.025" cy="36.415" r="10.395" style="stroke: none; stroke-width: 1; stroke-dasharray: none; stroke-linecap: butt; stroke-linejoin: miter; stroke-miterlimit: 10; fill: rgb(90,209,93); fill-rule: nonzero; opacity: 1;" transform="  matrix(1 0 0 1 0 0) "/>
	<circle cx="32.025" cy="65.585" r="10.395" style="stroke: none; stroke-width: 1; stroke-dasharray: none; stroke-linecap: butt; stroke-linejoin: miter; stroke-miterlimit: 10; fill: rgb(211,84,84); fill-rule: nonzero; opacity: 1;" transform="  matrix(1 0 0 1 0 0) "/>
	<path d="M 32.02 47.812 c -6.283 0 -11.395 -5.112 -11.395 -11.395 s 5.111 -11.395 11.395 -11.395 s 11.395 5.112 11.395 11.395 S 38.303 47.812 32.02 47.812 z M 32.02 27.021 c -5.18 0 -9.395 4.214 -9.395 9.395 s 4.214 9.395 9.395 9.395 c 5.181 0 9.395 -4.214 9.395 -9.395 S 37.201 27.021 32.02 27.021 z" style="stroke: none; stroke-width: 1; stroke-dasharray: none; stroke-linecap: butt; stroke-linejoin: miter; stroke-miterlimit: 10; fill: rgb(0,0,0); fill-rule: nonzero; opacity: 1;" transform=" matrix(1 0 0 1 0 0) " stroke-linecap="round"/>
	<path d="M 29.924 40.98 c -0.018 0 -0.036 0 -0.053 -0.001 c -0.299 -0.016 -0.576 -0.166 -0.753 -0.407 l -2.306 -3.145 c -0.327 -0.445 -0.23 -1.071 0.215 -1.397 c 0.446 -0.328 1.071 -0.23 1.397 0.215 l 1.584 2.16 l 5.676 -6.226 c 0.373 -0.407 1.004 -0.437 1.413 -0.065 c 0.408 0.372 0.437 1.004 0.065 1.413 l -6.499 7.128 C 30.473 40.863 30.204 40.98 29.924 40.98 z" style="stroke: none; stroke-width: 1; stroke-dasharray: none; stroke-linecap: butt; stroke-linejoin: miter; stroke-miterlimit: 10; fill: rgb(0,0,0); fill-rule: nonzero; opacity: 1;" transform=" matrix(1 0 0 1 0 0) " stroke-linecap="round"/>
	<path d="M 68.375 32.859 H 50.688 c -0.553 0 -1 -0.448 -1 -1 s 0.447 -1 1 -1 h 17.688 c 0.553 0 1 0.448 1 1 S 68.928 32.859 68.375 32.859 z" style="stroke: none; stroke-width: 1; stroke-dasharray: none; stroke-linecap: butt; stroke-linejoin: miter; stroke-miterlimit: 10; fill: rgb(0,0,0); fill-rule: nonzero; opacity: 1;" transform=" matrix(1 0 0 1 0 0) " stroke-linecap="round"/>
	<path d="M 68.375 41.974 H 50.688 c -0.553 0 -1 -0.448 -1 -1 s 0.447 -1 1 -1 h 17.688 c 0.553 0 1 0.448 1 1 S 68.928 41.974 68.375 41.974 z" style="stroke: none; stroke-width: 1; stroke-dasharray: none; stroke-linecap: butt; stroke-linejoin: miter; stroke-miterlimit: 10; fill: rgb(0,0,0); fill-rule: nonzero; opacity: 1;" transform=" matrix(1 0 0 1 0 0) " stroke-linecap="round"/>
	<path d="M 32.02 76.979 c -6.283 0 -11.395 -5.112 -11.395 -11.396 s 5.111 -11.395 11.395 -11.395 S 43.415 59.3 43.415 65.583 S 38.303 76.979 32.02 76.979 z M 32.02 56.188 c -5.18 0 -9.395 4.215 -9.395 9.395 c 0 5.181 4.214 9.396 9.395 9.396 c 5.181 0 9.395 -4.215 9.395 -9.396 C 41.415 60.403 37.201 56.188 32.02 56.188 z" style="stroke: none; stroke-width: 1; stroke-dasharray: none; stroke-linecap: butt; stroke-linejoin: miter; stroke-miterlimit: 10; fill: rgb(0,0,0); fill-rule: nonzero; opacity: 1;" transform=" matrix(1 0 0 1 0 0) " stroke-linecap="round"/>
	<path d="M 68.375 62.026 H 50.688 c -0.553 0 -1 -0.447 -1 -1 s 0.447 -1 1 -1 h 17.688 c 0.553 0 1 0.447 1 1 S 68.928 62.026 68.375 62.026 z" style="stroke: none; stroke-width: 1; stroke-dasharray: none; stroke-linecap: butt; stroke-linejoin: miter; stroke-miterlimit: 10; fill: rgb(0,0,0); fill-rule: nonzero; opacity: 1;" transform=" matrix(1 0 0 1 0 0) " stroke-linecap="round"/>
	<path d="M 68.375 71.141 H 50.688 c -0.553 0 -1 -0.447 -1 -1 s 0.447 -1 1 -1 h 17.688 c 0.553 0 1 0.447 1 1 S 68.928 71.141 68.375 71.141 z" style="stroke: none; stroke-width: 1; stroke-dasharray: none; stroke-linecap: butt; stroke-linejoin: miter; stroke-miterlimit: 10; fill: rgb(0,0,0); fill-rule: nonzero; opacity: 1;" transform=" matrix(1 0 0 1 0 0) " stroke-linecap="round"/>
	<path d="M 35.428 70.802 c -0.292 0 -0.581 -0.127 -0.778 -0.372 l -6.815 -8.437 c -0.347 -0.429 -0.28 -1.059 0.149 -1.406 c 0.43 -0.347 1.059 -0.28 1.406 0.15 l 6.815 8.437 c 0.347 0.429 0.28 1.059 -0.149 1.406 C 35.871 70.729 35.649 70.802 35.428 70.802 z" style="stroke: none; stroke-width: 1; stroke-dasharray: none; stroke-linecap: butt; stroke-linejoin: miter; stroke-miterlimit: 10; fill: rgb(0,0,0); fill-rule: nonzero; opacity: 1;" transform=" matrix(1 0 0 1 0 0) " stroke-linecap="round"/>
	<path d="M 28.612 70.802 c -0.221 0 -0.443 -0.072 -0.628 -0.222 c -0.43 -0.348 -0.497 -0.978 -0.149 -1.406 l 6.815 -8.437 c 0.348 -0.431 0.978 -0.497 1.406 -0.15 c 0.43 0.348 0.497 0.978 0.149 1.406 l -6.815 8.437 C 29.193 70.675 28.904 70.802 28.612 70.802 z" style="stroke: none; stroke-width: 1; stroke-dasharray: none; stroke-linecap: butt; stroke-linejoin: miter; stroke-miterlimit: 10; fill: rgb(0,0,0); fill-rule: nonzero; opacity: 1;" transform=" matrix(1 0 0 1 0 0) " stroke-linecap="round"/>
</g>
</svg>